<?xml version="1.0" encoding="UTF-8" standalone="no" ?>
<!-- Created with Inkscape (http://www.inkscape.org/) -->
<svg
    width="1024"
    height="1024"
    viewBox="0 0 270.93333 270.93333"
    version="1.1"
    id="svg5"
    xml:space="preserve"
    inkscape:version="1.2.2 (b0a8486541, 2022-12-01)"
    sodipodi:docname="contentgrid.svg"
    xmlns:inkscape="http://www.inkscape.org/namespaces/inkscape"
    xmlns:sodipodi="http://sodipodi.sourceforge.net/DTD/sodipodi-0.dtd"
    xmlns="http://www.w3.org/2000/svg"
    xmlns:svg="http://www.w3.org/2000/svg"
><sodipodi:namedview
        id="namedview7"
        borderopacity="0.25"
        inkscape:showpageshadow="2"
        inkscape:pageopacity="0.0"
        inkscape:pagecheckerboard="0"
        inkscape:document-units="mm"
        showgrid="false"
        inkscape:zoom="0.5946522"
        inkscape:cx="294.28967"
        inkscape:cy="599.5101"
        inkscape:window-width="1920"
        inkscape:window-height="1043"
        inkscape:window-x="0"
        inkscape:window-y="0"
        inkscape:window-maximized="1"
        inkscape:current-layer="layer1"
        pagecolor="#ffffff"
        bordercolor="#000000"
        inkscape:deskcolor="#d1d1d1"
    /><defs id="defs2" /><g
        inkscape:label="Capa 1"
        inkscape:groupmode="layer"
        id="layer1"
    ><path
            d="m 162.59671,243.39112 -26.4372,-26.36823 v -6.93349 -6.93348 h 7.53622 7.53619 l 25.66496,25.83985 c 18.05072,18.17372 25.74287,26.44083 25.92763,27.86558 0.20874,1.60914 -0.85002,3.14374 -5.14774,7.4619 -3.15195,3.16694 -6.08504,5.43612 -7.02663,5.43612 -1.06245,0 -10.67461,-9.03474 -28.05343,-26.36825 z m -91.071539,20.20339 c -2.985352,-2.99957 -5.346521,-6.06549 -5.346521,-6.94236 0,-1.0049 9.38018,-10.91979 26.048471,-27.53331 l 26.048469,-25.96292 h 7.35149 7.35149 v 6.94237 6.94235 l -26.04847,25.9629 c -20.422994,20.35594 -26.481461,25.96292 -28.053439,25.96292 -1.419743,0 -3.565533,-1.56797 -7.35149,-5.37195 z M 5.5204874,197.78395 c -3.9713597,-3.99026 -5.3465237,-5.92747 -5.3465237,-7.53175 0,-1.77172 4.5918755,-6.79006 25.5563053,-27.92977 l 25.556306,-25.76996 h 7.446037 7.446038 v 7.33879 7.33882 L 40.13018,177.193 c -17.014675,16.9588 -26.605911,25.96292 -27.655821,25.96292 -0.928716,0 -3.8646833,-2.26808 -6.9538716,-5.37197 z M 228.99896,177.18405 202.95945,151.21219 v -7.32985 -7.32987 h 7.3721 7.37206 l 26.02791,25.99522 c 20.23431,20.20896 26.02785,26.43502 26.02785,27.97094 0,2.7436 -9.98059,12.63729 -12.74826,12.63729 -1.52994,0 -7.81682,-5.82898 -28.01215,-25.97187 z M 93.753783,175.0798 69.359598,150.17525 v -6.81137 -6.81141 h 7.360755 7.360755 l 24.448732,24.38633 24.44873,24.38636 v 7.32956 7.32962 h -7.4153 -7.4153 z m 42.405727,17.56542 v -7.33911 l 24.45828,-24.37682 24.45828,-24.37682 h 7.3512 7.35124 v 6.80488 6.80488 l -24.45356,24.90343 -24.45355,24.90345 -7.35594,0.009 -7.35595,0.009 V 192.648 Z M 69.359598,126.04177 v -7.33911 L 93.817873,94.325843 118.27616,69.949008 h 7.3512 7.35121 v 7.339107 7.339106 L 108.52029,109.00404 84.062013,133.38088 H 76.710809 69.359598 Z M 160.60825,108.99453 136.15951,84.608183 v -7.329581 -7.329594 h 7.36077 7.36074 l 24.44875,24.386342 24.44874,24.38635 v 7.32958 7.3296 h -7.36077 -7.36075 z m 42.3512,16.63924 v -7.74709 l 25.67469,-25.554637 c 19.9484,-19.855092 26.11658,-25.554627 27.65581,-25.554627 2.7513,0 12.67416,9.951548 12.67416,12.710778 0,1.525426 -5.84615,7.793816 -26.04847,27.929766 l -26.04846,25.96292 h -6.95387 -6.95386 z M 25.815774,107.0125 C 9.0756243,90.315655 0.1739637,80.880689 0.1739637,79.834468 c 0,-0.925905 2.2749139,-3.853398 5.3878075,-6.933356 4.1458179,-4.101947 5.9158278,-5.330798 7.6783768,-5.330798 1.951993,0 6.033748,3.772463 27.614533,25.522055 L 66.17865,118.61442 v 6.98678 6.98678 H 58.818117 51.457585 Z M 92.615697,41.201942 C 70.267662,18.911728 66.973887,15.318554 66.973887,13.229373 c 0,-3.4224593 8.904675,-12.26251052 12.352154,-12.26251052 2.049455,0 5.826792,3.44893592 28.010719,25.57547452 l 25.64181,25.575473 v 7.329806 7.3298 h -7.36054 -7.36052 z m 43.543813,18.23666 V 52.09979 L 162.20798,26.136875 C 179.22267,9.1780863 188.8139,0.1739637 189.8638,0.1739637 c 0.92872,0 3.86469,2.2680747 6.95387,5.3719612 4.19768,4.2176396 5.34653,5.8798031 5.34653,7.7353341 0,2.045302 -3.45213,5.804138 -25.65092,27.929764 l -25.65093,25.566393 h -7.35141 -7.35143 z"
            id="path249"
            fill="currentColor"
            stroke="currentColor"
            inkscape:label="path249"
            style="stroke-width:1.34793"
        /></g></svg>
